<svg height="45" width="45" xmlns="http://www.w3.org/2000/svg">
  <path d="M20.5 24h-17a.5.5 0 01-.5-.5v-17a.5.5 0 01.5-.5h17a.5.5 0 01.5.5v17a.5.5 0 01-.5.5zM4 23h16V7H4z" />
  <path
    d="M17.5 24a.5.5 0 01-.5-.5v-17a.5.5 0 011 0v17a.5.5 0 01-.5.5zM13.5 11a.5.5 0 01-.5-.5V4c0-1.654-1.346-3-3-3S7 2.346 7 4v6.5a.5.5 0 01-1 0V4c0-2.206 1.794-4 4-4s4 1.794 4 4v6.5a.5.5 0 01-.5.5z" />
  <path
    d="M16.5 7a.5.5 0 01-.5-.5v-2C16 3.122 14.878 2 13.5 2S11 3.122 11 4.5v2a.5.5 0 01-1 0v-2C10 2.57 11.57 1 13.5 1S17 2.57 17 4.5v2a.5.5 0 01-.5.5z" />
  </svg>