<svg id="Capa_1" enable-background="new 0 0 512 512" height="512" viewBox="0 0 512 512" width="512" xmlns="http://www.w3.org/2000/svg"><g><path d="m488.213 45 19.394-19.394c5.858-5.858 5.858-15.355 0-21.213-5.857-5.858-15.355-5.858-21.213 0l-19.394 19.394-19.393-19.393c-2.813-2.813-6.628-4.394-10.607-4.394h-166.274c-3.979 0-7.794 1.581-10.606 4.394l-255.726 255.726c-5.858 5.857-5.858 15.355 0 21.213l226.274 226.274c2.813 2.813 6.628 4.394 10.606 4.394s7.794-1.581 10.606-4.394l255.726-255.726c2.813-2.813 4.394-6.628 4.394-10.606v-166.275c0-3.978-1.58-7.793-4.394-10.606zm-6.213 190.061-240.725 240.726-205.062-205.061 240.726-240.726h153.849l15 15-39.771 39.771-9.394-9.394c-5.857-5.858-15.355-5.858-21.213 0s-5.858 15.355 0 21.213l40 40c2.929 2.929 6.768 4.394 10.606 4.394s7.678-1.464 10.606-4.394c5.858-5.858 5.858-15.355 0-21.213l-9.394-9.394 39.772-39.769 15 15z"/><path d="m332.118 179.882c-4.159-32.601-32.078-57.882-65.792-57.882-36.572 0-66.326 29.754-66.326 66.327v108.673c0 8.284 6.716 15 15 15h108.674c36.572 0 66.326-29.754 66.326-66.326 0-33.714-25.281-61.632-57.882-65.792zm-8.444 102.118h-93.674v-93.673c0-20.031 16.296-36.327 36.327-36.327 20.03 0 36.326 16.296 36.326 36.327v6.02c0 8.284 6.716 15 15 15h6.021c20.03 0 36.326 16.296 36.326 36.327s-16.296 36.326-36.326 36.326z"/></g></svg>