<svg width="375" height="258" viewBox="0 0 375 258" fill="none" xmlns="http://www.w3.org/2000/svg">
<path fill-rule="evenodd" clip-rule="evenodd" d="M132.287 55.2126C89.7239 55.4862 54.9272 89.8212 55.115 131.926C55.3028 174.03 90.3996 208.054 132.964 207.963C157.613 207.91 179.691 196.411 193.923 178.576C194.535 177.94 195.073 177.239 195.529 176.486C195.786 176.139 196.047 175.796 196.299 175.446L196.14 175.342C196.868 173.786 197.248 172.094 197.253 170.38V170.276C197.225 167.121 195.929 164.106 193.65 161.892C191.371 159.678 188.295 158.447 185.096 158.468C183.452 158.481 181.828 158.826 180.324 159.48C178.819 160.135 177.466 161.086 176.347 162.274H176.345C176.34 162.279 176.335 162.289 176.33 162.294C175.835 162.819 175.39 163.386 174.999 163.99C165.246 176.103 150.117 183.902 132.916 183.939C103.056 184.003 79.2667 160.699 79.1379 131.819C79.0091 102.939 102.58 79.4266 132.439 79.2346C141.49 79.1765 149.988 81.2775 157.451 85.0277C159.853 87.1563 163.054 88.3439 166.382 88.342C169.796 88.335 173.067 87.0769 175.479 84.8439C177.89 82.6108 179.245 79.585 179.245 76.4303V76.3268C179.221 74.1107 178.529 71.9447 177.246 70.0723C175.963 68.1999 174.141 66.6953 171.983 65.7277C160.309 58.9703 146.725 55.119 132.287 55.2118V55.2126Z" fill="#8600A8"/>
<path fill-rule="evenodd" clip-rule="evenodd" d="M134.185 0.00277755C60.2165 0.463886 -0.326918 58.2141 0.00132847 129.568C0.329575 200.921 61.3889 258.153 135.359 258C192.336 257.881 241.487 223.733 261.069 175.443L261.049 175.37C262.575 173.395 263.391 171.063 263.392 168.675V168.572C263.36 165.417 261.907 162.402 259.351 160.188C256.795 157.974 253.346 156.743 249.758 156.763C246.817 156.783 243.962 157.644 241.626 159.217C239.291 160.79 237.601 162.989 236.812 165.482C236.781 165.463 236.76 165.453 236.729 165.438C221.281 203.974 182.018 231.546 135.311 231.643C74.8603 231.769 26.6312 185.828 26.3718 129.445C26.1125 73.0628 73.8972 26.7386 134.347 26.3619C172.594 26.1236 206.021 44.3605 225.559 72.06L225.63 72.0273C226.641 74.2337 228.38 76.1233 230.623 77.4527C232.866 78.7821 235.51 79.4903 238.215 79.4863C241.803 79.4792 245.24 78.2208 247.774 75.9872C250.308 73.7536 251.73 70.7272 251.73 67.5721V67.4685C251.703 65.1353 250.899 62.8603 249.415 60.9258L249.678 60.8047C225.561 23.9887 182.585 -0.298838 134.185 0.00277755Z" fill="#FFBE00"/>
<path fill-rule="evenodd" clip-rule="evenodd" d="M357.796 62.1113C357.203 62.0986 356.568 62.1059 355.888 62.1342C343.663 62.2114 334.336 60.7885 314.347 70.9058C302.704 76.6725 298.665 83.9633 298.22 89.8904L132.332 118.348C132.137 118.336 131.942 118.328 131.747 118.324C128.16 118.346 124.728 119.716 122.205 122.132C119.683 124.549 118.275 127.816 118.29 131.215C118.309 134.551 119.698 137.748 122.161 140.13C124.625 142.513 127.971 143.892 131.489 143.978L131.532 144.235L133.781 143.849C134.069 143.808 134.355 143.76 134.639 143.702L302.514 114.906C307.995 120.367 313.339 126.383 324.502 126.293C358.754 127.408 386.145 125.249 370.198 111.523L346.657 92.1373C353.887 82.1222 376.188 62.5103 357.796 62.112L357.796 62.1113Z" fill="#FFBE00"/>
<path fill-rule="evenodd" clip-rule="evenodd" d="M132.287 55.2126C89.7239 55.4862 54.9272 89.8212 55.115 131.926C55.3028 174.03 90.3996 208.054 132.964 207.963C157.613 207.91 179.691 196.411 193.923 178.576C194.535 177.94 195.073 177.239 195.529 176.486C195.786 176.139 196.047 175.796 196.299 175.446L196.14 175.342C196.868 173.786 197.248 172.094 197.253 170.38V170.276C197.225 167.121 195.929 164.106 193.65 161.892C191.371 159.678 188.295 158.447 185.096 158.468C183.452 158.481 181.828 158.826 180.324 159.48C178.819 160.135 177.466 161.086 176.347 162.274H176.345C176.34 162.279 176.335 162.289 176.33 162.294C175.835 162.819 175.39 163.386 174.999 163.99C165.246 176.103 150.117 183.902 132.916 183.939C103.056 184.003 79.2667 160.699 79.1379 131.819C79.0091 102.939 102.58 79.4266 132.439 79.2346C141.49 79.1765 149.988 81.2775 157.451 85.0277C159.853 87.1563 163.054 88.3439 166.382 88.342C169.796 88.335 173.067 87.0769 175.479 84.8439C177.89 82.6108 179.245 79.585 179.245 76.4303V76.3268C179.221 74.1107 178.529 71.9447 177.246 70.0723C175.963 68.1999 174.141 66.6953 171.983 65.7277C160.309 58.9703 146.725 55.119 132.287 55.2118V55.2126Z" fill="#8600A8"/>
<path fill-rule="evenodd" clip-rule="evenodd" d="M134.185 0.00277755C60.2165 0.463886 -0.326918 58.2141 0.00132847 129.568C0.329575 200.921 61.3889 258.153 135.359 258C192.336 257.881 241.487 223.733 261.069 175.443L261.049 175.37C262.575 173.395 263.391 171.063 263.392 168.675V168.572C263.36 165.417 261.907 162.402 259.351 160.188C256.795 157.974 253.346 156.743 249.758 156.763C246.817 156.783 243.962 157.644 241.626 159.217C239.291 160.79 237.601 162.989 236.812 165.482C236.781 165.463 236.76 165.453 236.729 165.438C221.281 203.974 182.018 231.546 135.311 231.643C74.8603 231.769 26.6312 185.828 26.3718 129.445C26.1125 73.0628 73.8972 26.7386 134.347 26.3619C172.594 26.1236 206.021 44.3605 225.559 72.06L225.63 72.0273C226.641 74.2337 228.38 76.1233 230.623 77.4527C232.866 78.7821 235.51 79.4903 238.215 79.4863C241.803 79.4792 245.24 78.2208 247.774 75.9872C250.308 73.7536 251.73 70.7272 251.73 67.5721V67.4685C251.703 65.1353 250.899 62.8603 249.415 60.9258L249.678 60.8047C225.561 23.9887 182.585 -0.298838 134.185 0.00277755Z" fill="#FFBE00"/>
<path fill-rule="evenodd" clip-rule="evenodd" d="M357.796 62.1113C357.203 62.0986 356.568 62.1059 355.888 62.1342C343.663 62.2114 334.336 60.7885 314.347 70.9058C302.704 76.6725 298.665 83.9633 298.22 89.8904L132.332 118.348C132.137 118.336 131.942 118.328 131.747 118.324C128.16 118.346 124.728 119.716 122.205 122.132C119.683 124.549 118.275 127.816 118.29 131.215C118.309 134.551 119.698 137.748 122.161 140.13C124.625 142.513 127.971 143.892 131.489 143.978L131.532 144.235L133.781 143.849C134.069 143.808 134.355 143.76 134.639 143.702L302.514 114.906C307.995 120.367 313.339 126.383 324.502 126.293C358.754 127.408 386.145 125.249 370.198 111.523L346.657 92.1373C353.887 82.1222 376.188 62.5103 357.796 62.112L357.796 62.1113Z" fill="#FFBE00"/>
</svg>
