<!-- <svg width="1947" height="293" viewBox="0 0 1947 293" fill="none" xmlns="http://www.w3.org/2000/svg"> -->
<svg width="200" height="45" viewBox="0 0 3000 45" fill="none" xmlns="http://www.w3.org/2000/svg">
<path fill-rule="evenodd" clip-rule="evenodd" d="M1265.69 62.0811C1224.8 62.344 1191.36 95.3358 1191.54 135.793C1191.72 176.25 1225.45 208.942 1266.34 208.855C1290.03 208.804 1311.24 197.755 1324.92 180.618C1325.51 180.006 1326.02 179.333 1326.46 178.609C1326.71 178.277 1326.96 177.947 1327.2 177.61L1327.05 177.511C1327.75 176.016 1328.11 174.389 1328.12 172.742V172.643C1328.09 169.611 1326.85 166.714 1324.66 164.587C1322.47 162.459 1319.51 161.276 1316.44 161.296C1314.86 161.309 1313.3 161.641 1311.85 162.269C1310.41 162.898 1309.11 163.812 1308.03 164.954H1308.03C1308.02 164.959 1308.02 164.968 1308.01 164.973C1307.54 165.477 1307.11 166.023 1306.73 166.603C1297.36 178.241 1282.83 185.736 1266.3 185.771C1237.61 185.833 1214.75 163.44 1214.62 135.69C1214.5 107.941 1237.15 85.3479 1265.84 85.1634C1274.54 85.1076 1282.7 87.1263 1289.87 90.7298C1292.18 92.7751 1295.26 93.9162 1298.45 93.9144C1301.73 93.9077 1304.88 92.6989 1307.2 90.5531C1309.51 88.4074 1310.81 85.5001 1310.81 82.4688V82.3697C1310.79 80.2404 1310.13 78.1591 1308.89 76.36C1307.66 74.5608 1305.91 73.1151 1303.84 72.1853C1292.62 65.6923 1279.57 61.9916 1265.69 62.0808V62.0811Z" fill="#8600A8"/>
<path fill-rule="evenodd" clip-rule="evenodd" d="M1267.52 9.03138C1196.44 9.47445 1138.27 64.9654 1138.58 133.527C1138.9 202.089 1197.57 257.082 1268.65 256.934C1323.39 256.82 1370.62 224.009 1389.44 177.607L1389.42 177.537C1390.88 175.64 1391.67 173.399 1391.67 171.105V171.005C1391.64 167.974 1390.24 165.077 1387.79 162.95C1385.33 160.822 1382.02 159.639 1378.57 159.659C1375.74 159.678 1373 160.505 1370.75 162.017C1368.51 163.528 1366.89 165.641 1366.13 168.036C1366.1 168.018 1366.08 168.008 1366.05 167.994C1351.21 205.022 1313.48 231.516 1268.6 231.609C1210.51 231.729 1164.17 187.586 1163.92 133.41C1163.67 79.2332 1209.59 34.7212 1267.67 34.3592C1304.42 34.1302 1336.54 51.6537 1355.32 78.2696L1355.38 78.2367C1356.36 80.3568 1358.03 82.1725 1360.18 83.4499C1362.34 84.7272 1364.88 85.4078 1367.48 85.4039C1370.92 85.3971 1374.23 84.188 1376.66 82.0417C1379.1 79.8955 1380.46 76.9875 1380.46 73.9558V73.8563C1380.44 71.6143 1379.66 69.4283 1378.24 67.5695L1378.49 67.4531C1355.32 32.0789 1314.02 8.74155 1267.52 9.03138Z" fill="#FFBE00"/>
<path fill-rule="evenodd" clip-rule="evenodd" d="M74.1536 64.4953C33.2555 64.7581 -0.179738 97.7499 0.000727124 138.207C0.180958 178.664 33.9048 211.357 74.8036 211.269C98.4884 211.218 119.703 200.169 133.378 183.032C133.965 182.42 134.483 181.747 134.921 181.024C135.168 180.691 135.418 180.361 135.66 180.024L135.507 179.925C136.207 178.43 136.572 176.803 136.577 175.156V175.057C136.55 172.025 135.305 169.128 133.115 167.001C130.925 164.874 127.969 163.69 124.896 163.711C123.316 163.724 121.756 164.055 120.31 164.684C118.864 165.313 117.564 166.226 116.489 167.368H116.487C116.482 167.373 116.478 167.382 116.473 167.387C115.998 167.891 115.57 168.437 115.195 169.017C105.823 180.656 91.2856 188.15 74.7578 188.185C46.0661 188.247 23.2076 165.854 23.0838 138.105C22.9599 110.355 45.6084 87.762 74.2994 87.5775C82.9965 87.5217 91.1621 89.5405 98.333 93.144C100.641 95.1893 103.716 96.3304 106.914 96.3286C110.195 96.3218 113.338 95.113 115.655 92.9673C117.972 90.8216 119.274 87.9141 119.274 84.8828V84.7834C119.251 82.654 118.586 80.5728 117.354 78.7736C116.121 76.9745 114.369 75.5287 112.296 74.5989C101.079 68.1059 88.0262 64.4053 74.1539 64.4944L74.1536 64.4953Z" fill="#8600A8"/>
<path fill-rule="evenodd" clip-rule="evenodd" d="M221.554 64.4951C180.656 64.7579 147.221 97.74 147.402 138.197C147.582 178.654 181.306 211.347 222.204 211.259C263.103 211.171 296.677 178.335 296.677 137.877H296.559C296.555 137.663 296.546 137.45 296.531 137.237L296.676 137.234C296.315 96.7784 262.451 64.2322 221.553 64.4951H221.554ZM221.7 87.5684C250.391 87.3839 273.347 109.687 273.595 137.436L273.854 137.433C273.845 137.581 273.839 137.729 273.835 137.877H273.595C273.595 165.627 250.843 188.124 222.152 188.186C193.46 188.247 170.599 165.845 170.475 138.096C170.351 110.346 193.009 87.753 221.7 87.5685L221.7 87.5684Z" fill="#8600A8"/>
<path fill-rule="evenodd" clip-rule="evenodd" d="M323.751 69.5986C320.469 69.7162 317.309 70.7898 314.782 72.645C312.254 74.5003 310.509 77.0284 309.829 79.8193L309.533 79.817L309.519 81.9441C309.507 82.215 309.506 82.486 309.514 82.7567L308.978 191.865H309.082L309.092 193.813C309.083 194.084 309.085 194.355 309.096 194.626L309.111 196.753L309.407 196.75C310.087 199.541 311.833 202.069 314.36 203.925C316.887 205.78 320.047 206.853 323.329 206.971C324.3 207.006 325.271 206.956 326.227 206.823C330.022 206.292 333.389 204.475 335.59 201.771C337.792 199.067 338.647 195.697 337.969 192.399C337.925 192.221 337.878 192.043 337.826 191.866L337.775 181.458L338.001 135.326C343.192 113.122 363.331 96.5118 387.911 96.3538C414.243 96.1844 435.73 114.961 439.279 139.5L439.585 196.04C439.578 196.25 439.579 196.46 439.59 196.67L439.604 198.32L439.856 198.317C440.439 200.482 441.936 202.443 444.103 203.883C446.27 205.322 448.98 206.155 451.794 206.246C452.626 206.273 453.458 206.235 454.277 206.132C457.531 205.72 460.419 204.311 462.306 202.213C464.194 200.116 464.927 197.501 464.345 194.943C464.309 194.804 464.269 194.666 464.224 194.528L463.926 139.405C467.475 115.186 488.544 96.5211 514.608 96.3535C538.283 96.2015 558.04 111.367 564.368 132.265H564.147L564.598 198.285C564.591 198.449 564.592 198.612 564.601 198.775L564.615 200.063L564.865 200.061C565.437 201.75 566.905 203.28 569.03 204.402C571.156 205.525 573.815 206.175 576.575 206.246C577.392 206.267 578.208 206.237 579.012 206.156C582.203 205.835 585.035 204.735 586.886 203.099C588.737 201.463 589.456 199.424 588.886 197.429C588.85 197.321 588.811 197.214 588.767 197.107L588.326 132.265H588.11C581.217 98.4423 550.6 73.0483 514.462 73.2806C488.031 73.4505 464.736 87.2983 451.6 107.986C438.289 87.013 414.544 73.1084 387.764 73.2806C368.75 73.4026 351.37 80.6208 338.21 92.3519L338.248 84.7044C338.3 84.5273 338.348 84.3495 338.391 84.1708C339.069 80.8733 338.214 77.5026 336.013 74.7985C333.812 72.0943 330.444 70.2775 326.65 69.7466C325.693 69.6136 324.722 69.5641 323.751 69.5988L323.751 69.5986Z" fill="#8600A8"/>
<path fill-rule="evenodd" clip-rule="evenodd" d="M624.47 56.7773C621.188 56.895 618.028 57.9686 615.5 59.8238C612.973 61.6791 611.228 64.2073 610.548 66.9981L610.252 66.9957L610.238 69.1228C610.226 69.3937 610.225 69.6647 610.233 69.9353L609.738 170.722H609.696L609.715 174.885L609.696 179.044H609.738L610.233 279.831C610.225 280.102 610.226 280.373 610.238 280.644L610.252 282.771L610.548 282.769C611.228 285.559 612.973 288.088 615.5 289.943C618.028 291.798 621.188 292.872 624.47 292.989C625.441 293.024 626.412 292.974 627.368 292.841C631.163 292.311 634.53 290.494 636.731 287.79C638.932 285.085 639.788 281.715 639.11 278.417C639.066 278.239 639.018 278.061 638.966 277.884L638.542 191.048C652.031 203.473 670.16 211.044 689.954 210.917C730.852 210.654 764.287 177.672 764.107 137.215C764.102 136.042 764.058 134.879 763.998 133.72L763.656 133.819C760.036 96.354 727.646 67.1543 688.906 67.4033C669.68 67.5267 652.105 74.8853 638.894 86.8481L638.967 71.8832C639.019 71.7061 639.066 71.5282 639.11 71.3495C639.788 68.0521 638.933 64.6815 636.731 61.9774C634.53 59.2732 631.163 57.4564 627.368 56.9254C626.412 56.7924 625.441 56.7429 624.47 56.7776L624.47 56.7773ZM689.052 90.4764C717.743 90.292 740.699 112.595 740.946 140.344C739.479 166.69 717.448 187.666 689.808 187.844C663.878 188.01 642.637 169.809 638.605 145.82L638.675 131.663C643.008 108.357 663.661 90.6397 689.052 90.4764H689.052Z" fill="#8600A8"/>
<path fill-rule="evenodd" clip-rule="evenodd" d="M795.959 58.2582C792.678 58.3761 789.517 59.45 786.989 61.3057C784.462 63.1615 782.717 65.6902 782.037 68.4815L781.742 68.4791L781.727 70.6062C781.716 70.8763 781.714 71.1465 781.723 71.4163L781.233 170.954L780.779 201.859C780.766 202.129 780.763 202.399 780.77 202.669L780.742 204.797L781.038 204.799C781.663 207.603 783.358 210.166 785.849 212.071C788.34 213.976 791.479 215.112 794.759 215.294C795.729 215.347 796.701 215.317 797.66 215.202C801.465 214.746 804.868 212.995 807.123 210.335C809.377 207.674 810.299 204.321 809.685 201.011C809.645 200.831 809.6 200.653 809.552 200.475L809.845 180.528H809.932L809.975 171.6L810.569 131.218C815.654 108.871 835.855 92.1187 860.54 91.9601C882.33 91.8202 900.804 104.653 908.542 122.989C908.75 126.131 910.079 129.072 912.259 131.218C914.439 133.363 917.308 134.553 920.286 134.546C923.397 134.539 926.379 133.226 928.577 130.896C930.774 128.566 932.008 125.409 932.008 122.118V122.011C931.986 119.75 931.38 117.538 930.257 115.613L930.315 115.501C919.315 88.0486 891.969 68.6838 860.394 68.8868C841.168 69.0102 823.593 76.3688 810.382 88.3316L810.455 73.3666C810.507 73.1896 810.555 73.0116 810.598 72.833C811.276 69.5355 810.421 66.1649 808.22 63.4608C806.018 60.7566 802.651 58.9398 798.856 58.4088C797.9 58.2751 796.929 58.2248 795.958 58.2587L795.959 58.2582Z" fill="#8600A8"/>
<path fill-rule="evenodd" clip-rule="evenodd" d="M1077.24 56.0559C1076.26 56.0212 1075.29 56.0708 1074.34 56.2038C1070.54 56.7347 1067.18 58.5516 1064.97 61.2557C1062.77 63.9599 1061.92 67.3304 1062.6 70.6279C1062.64 70.8066 1062.69 70.9845 1062.74 71.1615L1062.81 86.1265C1049.6 74.1636 1032.03 66.8053 1012.8 66.6817C974.06 66.433 941.67 95.6325 938.05 133.098L937.708 132.998C937.648 134.158 937.606 135.32 937.602 136.493C937.421 176.951 970.856 209.933 1011.75 210.195C1031.55 210.323 1049.68 202.751 1063.16 190.326L1064.23 190.581L1064.3 198.59C1064.29 198.86 1064.3 199.13 1064.31 199.4L1064.33 201.527L1064.62 201.522C1065.29 204.312 1066.99 206.835 1069.45 208.683C1071.91 210.532 1074.97 211.596 1078.15 211.704C1079.09 211.737 1080.03 211.685 1080.96 211.549C1084.63 211.008 1087.89 209.181 1090.01 206.471C1092.13 203.76 1092.95 200.387 1092.28 197.091C1092.23 196.913 1092.18 196.736 1092.13 196.56L1091.97 178.323H1092.01L1091.99 174.163L1092.01 170.001H1091.97L1091.48 69.214C1091.48 68.9434 1091.48 68.6724 1091.47 68.4015L1091.46 66.2744L1091.16 66.2768C1090.48 63.4859 1088.74 60.9578 1086.21 59.1026C1083.68 57.2473 1080.52 56.1738 1077.24 56.056L1077.24 56.0559ZM1012.66 89.7551C1038.05 89.9184 1058.7 107.636 1063.03 130.942L1063.1 145.099C1059.07 169.088 1037.83 187.289 1011.9 187.122C984.26 186.944 962.23 165.969 960.762 139.622C961.01 111.873 983.966 89.5707 1012.66 89.7551H1012.66Z" fill="#8600A8"/>
<path fill-rule="evenodd" clip-rule="evenodd" d="M1468.6 64.4951C1447.24 64.8607 1426.33 74.317 1412.28 92.2253C1405.64 100.693 1401.23 110.207 1398.89 120.082C1398.89 120.086 1398.89 120.091 1398.89 120.1C1397.32 125.945 1396.46 132.077 1396.43 138.398C1396.2 178.855 1429.6 211.883 1470.5 212.204C1474.03 212.232 1477.51 212.006 1480.93 211.559C1480.94 211.558 1480.95 211.558 1480.96 211.557C1480.98 211.555 1481 211.552 1481.01 211.547C1481.71 211.455 1482.4 211.355 1483.09 211.244C1485.09 210.948 1487.08 210.6 1489.06 210.143C1489.9 210.028 1490.72 209.82 1491.51 209.524C1491.91 209.417 1492.32 209.314 1492.71 209.199L1492.66 209.037C1507.24 204.673 1520 196.027 1529.35 184.552C1529.94 183.946 1530.47 183.277 1530.91 182.558C1531.16 182.228 1531.42 181.901 1531.66 181.566L1531.51 181.467C1532.23 179.978 1532.61 178.355 1532.63 176.708V176.608C1532.63 173.577 1531.42 170.667 1529.25 168.518C1527.08 166.369 1524.14 165.156 1521.06 165.146C1519.48 165.143 1517.92 165.458 1516.47 166.073C1515.02 166.687 1513.71 167.587 1512.62 168.718H1512.62C1512.61 168.723 1512.61 168.732 1512.6 168.737C1512.12 169.237 1511.69 169.778 1511.31 170.355C1501.95 181.746 1487.59 189.036 1471.34 189.104C1460.4 188.917 1449.33 185.245 1439.89 177.806C1427.1 167.73 1420.28 153.149 1419.9 138.431L1520.24 139.03C1520.5 139.082 1520.77 139.13 1521.04 139.173C1525.99 139.844 1531.06 139.03 1535.13 136.908C1539.2 134.786 1541.94 131.531 1542.75 127.856C1542.96 126.931 1543.04 125.991 1542.99 125.05C1542.88 123.091 1542.23 121.163 1541.07 119.387C1541.46 116.926 1541.01 114.348 1539.81 112.031C1535.05 99.978 1527.11 88.9755 1516.17 80.4368C1502.07 69.4234 1485.2 64.2101 1468.6 64.4944V64.4951ZM1471.23 88.5118C1479.93 88.5447 1488.07 90.6435 1495.2 94.3184C1496.45 95.4374 1497.93 96.3034 1499.56 96.8603C1500.37 97.4259 1501.17 98.0107 1501.96 98.6284C1506.62 102.267 1510.48 106.515 1513.54 111.141L1428.27 110.634C1437.52 97.2302 1453.23 88.4477 1471.23 88.5118Z" fill="#8600A8"/>
<path fill-rule="evenodd" clip-rule="evenodd" d="M1482.38 68.7099C1481.81 68.6958 1481.2 68.7052 1480.55 68.7334C1468.8 68.8076 1459.84 67.4403 1440.63 77.1618C1429.44 82.7029 1425.56 89.7084 1425.13 95.4037L1265.74 122.748C1265.55 122.736 1265.36 122.729 1265.17 122.725C1261.73 122.746 1258.43 124.062 1256.01 126.384C1253.58 128.706 1252.23 131.845 1252.24 135.111C1252.26 138.317 1253.6 141.389 1255.96 143.678C1258.33 145.967 1261.55 147.293 1264.93 147.375L1264.97 147.622L1267.13 147.251C1267.41 147.212 1267.68 147.165 1267.95 147.11L1429.26 119.44C1434.53 124.688 1439.66 130.469 1450.39 130.381C1483.3 131.454 1509.62 129.379 1494.3 116.19L1471.68 97.5627C1478.62 87.9394 1500.05 69.0947 1482.38 68.712L1482.38 68.7099Z" fill="#FFBE00"/>
<path fill-rule="evenodd" clip-rule="evenodd" d="M1583.28 58.2582C1580 58.3761 1576.84 59.4501 1574.31 61.3058C1571.78 63.1616 1570.04 65.6902 1569.36 68.4815L1569.06 68.4791L1569.05 70.6062C1569.04 70.8763 1569.03 71.1465 1569.04 71.4163L1568.55 170.954L1568.1 201.859C1568.09 202.129 1568.08 202.399 1568.09 202.669L1568.06 204.797L1568.36 204.799C1568.98 207.603 1570.68 210.166 1573.17 212.071C1575.66 213.976 1578.8 215.112 1582.08 215.294C1583.05 215.347 1584.02 215.317 1584.98 215.202C1588.78 214.746 1592.19 212.995 1594.44 210.335C1596.7 207.674 1597.62 204.321 1597 201.011C1596.96 200.831 1596.92 200.653 1596.87 200.475L1597.16 180.528H1597.25L1597.29 171.6L1597.89 131.218C1602.97 108.871 1623.17 92.1187 1647.86 91.9601C1669.65 91.8202 1688.12 104.653 1695.86 122.989C1696.07 126.131 1697.4 129.072 1699.58 131.218C1701.76 133.363 1704.63 134.553 1707.6 134.546C1710.72 134.539 1713.7 133.226 1715.9 130.896C1718.09 128.566 1719.33 125.409 1719.33 122.118V122.011C1719.3 119.75 1718.7 117.538 1717.58 115.613L1717.63 115.501C1706.63 88.0484 1679.29 68.6836 1647.71 68.8866C1628.49 69.01 1610.91 76.3686 1597.7 88.3314L1597.77 73.3664C1597.83 73.1893 1597.87 73.0114 1597.92 72.8328C1598.6 69.5353 1597.74 66.1647 1595.54 63.4606C1593.34 60.7564 1589.97 58.9396 1586.18 58.4086C1585.22 58.2748 1584.25 58.2245 1583.28 58.2584L1583.28 58.2582Z" fill="#8600A8"/>
<path fill-rule="evenodd" clip-rule="evenodd" d="M1795.42 51.4261C1795.26 48.7633 1793.66 46.1951 1790.88 44.1381C1788.11 42.0812 1784.32 40.6562 1780.13 40.0945L1780.13 39.8543L1776.94 39.8374C1776.53 39.826 1776.13 39.8227 1775.72 39.8276L1741.2 39.6554V62.9735L1772.67 63.1312C1772.94 63.1744 1773.2 63.214 1773.47 63.25C1778.42 63.8119 1783.49 63.13 1787.56 61.3539C1791.63 59.5778 1794.37 56.8527 1795.19 53.7763C1795.39 53.0012 1795.47 52.2139 1795.42 51.426L1795.42 51.4261Z" fill="#8600A8"/>
<path fill-rule="evenodd" clip-rule="evenodd" d="M1715.87 51.4262C1716.03 48.7634 1717.63 46.1951 1720.41 44.1382C1723.19 42.0812 1726.98 40.6563 1731.16 40.0945L1731.16 39.8544L1734.35 39.8375C1734.76 39.8261 1735.16 39.8228 1735.57 39.8276L1770.09 39.6554V62.9736L1738.62 63.1312C1738.36 63.1744 1738.09 63.2141 1737.82 63.2501C1732.87 63.812 1727.8 63.13 1723.73 61.354C1719.66 59.5779 1716.92 56.8527 1716.11 53.7763C1715.9 53.0013 1715.82 52.2139 1715.87 51.4261L1715.87 51.4262Z" fill="#8600A8"/>
<path fill-rule="evenodd" clip-rule="evenodd" d="M1743.16 103.993L1742.77 182.051L1766.09 182.238L1766.48 103.993H1743.16Z" fill="#8600A8"/>
<path fill-rule="evenodd" clip-rule="evenodd" d="M1742.77 131.186L1743.4 19.7136C1743.4 19.3083 1743.4 18.9025 1743.41 18.4969L1743.44 15.3022L1743.71 15.307C1744.35 11.1175 1745.96 7.32724 1748.3 4.55119C1750.64 1.77515 1753.55 0.176184 1756.58 0.0137434C1757.47 -0.0343777 1758.37 0.0439466 1759.25 0.247502C1762.74 1.06096 1765.84 3.80417 1767.86 7.87524C1769.88 11.9463 1770.65 17.0127 1770.01 21.9626C1769.97 22.2307 1769.93 22.4976 1769.88 22.7631L1769.26 131.373L1742.77 131.186Z" fill="#8600A8"/>
<path fill-rule="evenodd" clip-rule="evenodd" d="M1742.77 84.4373L1743.4 195.91C1743.4 196.316 1743.4 196.721 1743.41 197.127L1743.44 200.322L1743.71 200.317C1744.35 204.506 1745.96 208.297 1748.3 211.073C1750.64 213.849 1753.55 215.448 1756.58 215.61C1757.47 215.658 1758.37 215.58 1759.25 215.376C1762.74 214.563 1765.84 211.82 1767.86 207.749C1769.88 203.677 1770.65 198.611 1770.01 193.661C1769.97 193.393 1769.93 193.126 1769.88 192.861L1769.26 84.25L1742.77 84.4373Z" fill="#8600A8"/>
<path fill-rule="evenodd" clip-rule="evenodd" d="M1931.61 56.0559C1930.64 56.0212 1929.67 56.0708 1928.71 56.2038C1924.92 56.7348 1921.55 58.5517 1919.35 61.2558C1917.15 63.9599 1916.29 67.3305 1916.97 70.6279C1917.01 70.8066 1917.06 70.9845 1917.11 71.1615L1917.19 86.1265C1903.98 74.1636 1886.4 66.8053 1867.18 66.6817C1828.44 66.433 1796.05 95.6325 1792.43 133.098L1792.08 132.998C1792.02 134.158 1791.98 135.32 1791.98 136.493C1791.8 176.951 1825.23 209.933 1866.13 210.195C1885.92 210.323 1904.05 202.751 1917.54 190.326L1918.61 190.581L1918.68 198.59C1918.67 198.86 1918.67 199.13 1918.69 199.4L1918.71 201.527L1919 201.522C1919.67 204.312 1921.37 206.835 1923.82 208.683C1926.28 210.532 1929.35 211.596 1932.53 211.704C1933.47 211.737 1934.41 211.685 1935.33 211.549C1939.01 211.008 1942.26 209.181 1944.39 206.471C1946.51 203.76 1947.32 200.387 1946.65 197.091C1946.61 196.913 1946.56 196.736 1946.51 196.56L1946.34 178.323H1946.39L1946.37 174.163L1946.39 170.001H1946.34L1945.85 69.214C1945.86 68.9434 1945.86 68.6724 1945.85 68.4015L1945.83 66.2744L1945.54 66.2768C1944.86 63.486 1943.11 60.9579 1940.59 59.1027C1938.06 57.2475 1934.9 56.1739 1931.62 56.0562L1931.61 56.0559ZM1867.03 89.7551C1892.42 89.9184 1913.08 107.636 1917.41 130.942L1917.48 145.099C1913.45 169.088 1892.21 187.289 1866.28 187.122C1838.64 186.944 1816.61 165.969 1815.14 139.622C1815.39 111.873 1838.34 89.5707 1867.03 89.7551H1867.03Z" fill="#8600A8"/>
<path fill-rule="evenodd" clip-rule="evenodd" d="M1265.69 62.0811C1224.8 62.344 1191.36 95.3358 1191.54 135.793C1191.72 176.25 1225.45 208.942 1266.34 208.855C1290.03 208.804 1311.24 197.755 1324.92 180.618C1325.51 180.006 1326.02 179.333 1326.46 178.609C1326.71 178.277 1326.96 177.947 1327.2 177.61L1327.05 177.511C1327.75 176.016 1328.11 174.389 1328.12 172.742V172.643C1328.09 169.611 1326.85 166.714 1324.66 164.587C1322.47 162.459 1319.51 161.276 1316.44 161.296C1314.86 161.309 1313.3 161.641 1311.85 162.269C1310.41 162.898 1309.11 163.812 1308.03 164.954H1308.03C1308.02 164.959 1308.02 164.968 1308.01 164.973C1307.54 165.477 1307.11 166.023 1306.73 166.603C1297.36 178.241 1282.83 185.736 1266.3 185.771C1237.61 185.833 1214.75 163.44 1214.62 135.69C1214.5 107.941 1237.15 85.3479 1265.84 85.1634C1274.54 85.1076 1282.7 87.1263 1289.87 90.7298C1292.18 92.7751 1295.26 93.9162 1298.45 93.9144C1301.73 93.9077 1304.88 92.6989 1307.2 90.5531C1309.51 88.4074 1310.81 85.5001 1310.81 82.4688V82.3697C1310.79 80.2404 1310.13 78.1591 1308.89 76.36C1307.66 74.5608 1305.91 73.1151 1303.84 72.1853C1292.62 65.6923 1279.57 61.9916 1265.69 62.0808V62.0811Z" fill="#8600A8"/>
<path fill-rule="evenodd" clip-rule="evenodd" d="M1267.52 9.03138C1196.44 9.47445 1138.27 64.9654 1138.58 133.527C1138.9 202.089 1197.57 257.082 1268.65 256.934C1323.39 256.82 1370.62 224.009 1389.44 177.607L1389.42 177.537C1390.88 175.64 1391.67 173.399 1391.67 171.105V171.005C1391.64 167.974 1390.24 165.077 1387.79 162.95C1385.33 160.822 1382.02 159.639 1378.57 159.659C1375.74 159.678 1373 160.505 1370.75 162.017C1368.51 163.528 1366.89 165.641 1366.13 168.036C1366.1 168.018 1366.08 168.008 1366.05 167.994C1351.21 205.022 1313.48 231.516 1268.6 231.609C1210.51 231.729 1164.17 187.586 1163.92 133.41C1163.67 79.2332 1209.59 34.7212 1267.67 34.3592C1304.42 34.1302 1336.54 51.6537 1355.32 78.2696L1355.38 78.2367C1356.36 80.3568 1358.03 82.1725 1360.18 83.4499C1362.34 84.7272 1364.88 85.4078 1367.48 85.4039C1370.92 85.3971 1374.23 84.188 1376.66 82.0417C1379.1 79.8955 1380.46 76.9875 1380.46 73.9558V73.8563C1380.44 71.6143 1379.66 69.4283 1378.24 67.5695L1378.49 67.4531C1355.32 32.0789 1314.02 8.74155 1267.52 9.03138Z" fill="#FFBE00"/>
<path fill-rule="evenodd" clip-rule="evenodd" d="M74.1536 64.4953C33.2555 64.7581 -0.179738 97.7499 0.000727124 138.207C0.180958 178.664 33.9048 211.357 74.8036 211.269C98.4884 211.218 119.703 200.169 133.378 183.032C133.965 182.42 134.483 181.747 134.921 181.024C135.168 180.691 135.418 180.361 135.66 180.024L135.507 179.925C136.207 178.43 136.572 176.803 136.577 175.156V175.057C136.55 172.025 135.305 169.128 133.115 167.001C130.925 164.874 127.969 163.69 124.896 163.711C123.316 163.724 121.756 164.055 120.31 164.684C118.864 165.313 117.564 166.226 116.489 167.368H116.487C116.482 167.373 116.478 167.382 116.473 167.387C115.998 167.891 115.57 168.437 115.195 169.017C105.823 180.656 91.2856 188.15 74.7578 188.185C46.0661 188.247 23.2076 165.854 23.0838 138.105C22.9599 110.355 45.6084 87.762 74.2994 87.5775C82.9965 87.5217 91.1621 89.5405 98.333 93.144C100.641 95.1893 103.716 96.3304 106.914 96.3286C110.195 96.3218 113.338 95.113 115.655 92.9673C117.972 90.8216 119.274 87.9141 119.274 84.8828V84.7834C119.251 82.654 118.586 80.5728 117.354 78.7736C116.121 76.9745 114.369 75.5287 112.296 74.5989C101.079 68.1059 88.0262 64.4053 74.1539 64.4944L74.1536 64.4953Z" fill="#8600A8"/>
<path fill-rule="evenodd" clip-rule="evenodd" d="M221.554 64.4951C180.656 64.7579 147.221 97.74 147.402 138.197C147.582 178.654 181.306 211.347 222.204 211.259C263.103 211.171 296.677 178.335 296.677 137.877H296.559C296.555 137.663 296.546 137.45 296.531 137.237L296.676 137.234C296.315 96.7784 262.451 64.2322 221.553 64.4951H221.554ZM221.7 87.5684C250.391 87.3839 273.347 109.687 273.595 137.436L273.854 137.433C273.845 137.581 273.839 137.729 273.835 137.877H273.595C273.595 165.627 250.843 188.124 222.152 188.186C193.46 188.247 170.599 165.845 170.475 138.096C170.351 110.346 193.009 87.753 221.7 87.5685L221.7 87.5684Z" fill="#8600A8"/>
<path fill-rule="evenodd" clip-rule="evenodd" d="M323.751 69.5986C320.469 69.7162 317.309 70.7898 314.782 72.645C312.254 74.5003 310.509 77.0284 309.829 79.8193L309.533 79.817L309.519 81.9441C309.507 82.215 309.506 82.486 309.514 82.7567L308.978 191.865H309.082L309.092 193.813C309.083 194.084 309.085 194.355 309.096 194.626L309.111 196.753L309.407 196.75C310.087 199.541 311.833 202.069 314.36 203.925C316.887 205.78 320.047 206.853 323.329 206.971C324.3 207.006 325.271 206.956 326.227 206.823C330.022 206.292 333.389 204.475 335.59 201.771C337.792 199.067 338.647 195.697 337.969 192.399C337.925 192.221 337.878 192.043 337.826 191.866L337.775 181.458L338.001 135.326C343.192 113.122 363.331 96.5118 387.911 96.3538C414.243 96.1844 435.73 114.961 439.279 139.5L439.585 196.04C439.578 196.25 439.579 196.46 439.59 196.67L439.604 198.32L439.856 198.317C440.439 200.482 441.936 202.443 444.103 203.883C446.27 205.322 448.98 206.155 451.794 206.246C452.626 206.273 453.458 206.235 454.277 206.132C457.531 205.72 460.419 204.311 462.306 202.213C464.194 200.116 464.927 197.501 464.345 194.943C464.309 194.804 464.269 194.666 464.224 194.528L463.926 139.405C467.475 115.186 488.544 96.5211 514.608 96.3535C538.283 96.2015 558.04 111.367 564.368 132.265H564.147L564.598 198.285C564.591 198.449 564.592 198.612 564.601 198.775L564.615 200.063L564.865 200.061C565.437 201.75 566.905 203.28 569.03 204.402C571.156 205.525 573.815 206.175 576.575 206.246C577.392 206.267 578.208 206.237 579.012 206.156C582.203 205.835 585.035 204.735 586.886 203.099C588.737 201.463 589.456 199.424 588.886 197.429C588.85 197.321 588.811 197.214 588.767 197.107L588.326 132.265H588.11C581.217 98.4423 550.6 73.0483 514.462 73.2806C488.031 73.4505 464.736 87.2983 451.6 107.986C438.289 87.013 414.544 73.1084 387.764 73.2806C368.75 73.4026 351.37 80.6208 338.21 92.3519L338.248 84.7044C338.3 84.5273 338.348 84.3495 338.391 84.1708C339.069 80.8733 338.214 77.5026 336.013 74.7985C333.812 72.0943 330.444 70.2775 326.65 69.7466C325.693 69.6136 324.722 69.5641 323.751 69.5988L323.751 69.5986Z" fill="#8600A8"/>
<path fill-rule="evenodd" clip-rule="evenodd" d="M624.47 56.7773C621.188 56.895 618.028 57.9686 615.5 59.8238C612.973 61.6791 611.228 64.2073 610.548 66.9981L610.252 66.9957L610.238 69.1228C610.226 69.3937 610.225 69.6647 610.233 69.9353L609.738 170.722H609.696L609.715 174.885L609.696 179.044H609.738L610.233 279.831C610.225 280.102 610.226 280.373 610.238 280.644L610.252 282.771L610.548 282.769C611.228 285.559 612.973 288.088 615.5 289.943C618.028 291.798 621.188 292.872 624.47 292.989C625.441 293.024 626.412 292.974 627.368 292.841C631.163 292.311 634.53 290.494 636.731 287.79C638.932 285.085 639.788 281.715 639.11 278.417C639.066 278.239 639.018 278.061 638.966 277.884L638.542 191.048C652.031 203.473 670.16 211.044 689.954 210.917C730.852 210.654 764.287 177.672 764.107 137.215C764.102 136.042 764.058 134.879 763.998 133.72L763.656 133.819C760.036 96.354 727.646 67.1543 688.906 67.4033C669.68 67.5267 652.105 74.8853 638.894 86.8481L638.967 71.8832C639.019 71.7061 639.066 71.5282 639.11 71.3495C639.788 68.0521 638.933 64.6815 636.731 61.9774C634.53 59.2732 631.163 57.4564 627.368 56.9254C626.412 56.7924 625.441 56.7429 624.47 56.7776L624.47 56.7773ZM689.052 90.4764C717.743 90.292 740.699 112.595 740.946 140.344C739.479 166.69 717.448 187.666 689.808 187.844C663.878 188.01 642.637 169.809 638.605 145.82L638.675 131.663C643.008 108.357 663.661 90.6397 689.052 90.4764H689.052Z" fill="#8600A8"/>
<path fill-rule="evenodd" clip-rule="evenodd" d="M795.959 58.2582C792.678 58.3761 789.517 59.45 786.989 61.3057C784.462 63.1615 782.717 65.6902 782.037 68.4815L781.742 68.4791L781.727 70.6062C781.716 70.8763 781.714 71.1465 781.723 71.4163L781.233 170.954L780.779 201.859C780.766 202.129 780.763 202.399 780.77 202.669L780.742 204.797L781.038 204.799C781.663 207.603 783.358 210.166 785.849 212.071C788.34 213.976 791.479 215.112 794.759 215.294C795.729 215.347 796.701 215.317 797.66 215.202C801.465 214.746 804.868 212.995 807.123 210.335C809.377 207.674 810.299 204.321 809.685 201.011C809.645 200.831 809.6 200.653 809.552 200.475L809.845 180.528H809.932L809.975 171.6L810.569 131.218C815.654 108.871 835.855 92.1187 860.54 91.9601C882.33 91.8202 900.804 104.653 908.542 122.989C908.75 126.131 910.079 129.072 912.259 131.218C914.439 133.363 917.308 134.553 920.286 134.546C923.397 134.539 926.379 133.226 928.577 130.896C930.774 128.566 932.008 125.409 932.008 122.118V122.011C931.986 119.75 931.38 117.538 930.257 115.613L930.315 115.501C919.315 88.0486 891.969 68.6838 860.394 68.8868C841.168 69.0102 823.593 76.3688 810.382 88.3316L810.455 73.3666C810.507 73.1896 810.555 73.0116 810.598 72.833C811.276 69.5355 810.421 66.1649 808.22 63.4608C806.018 60.7566 802.651 58.9398 798.856 58.4088C797.9 58.2751 796.929 58.2248 795.958 58.2587L795.959 58.2582Z" fill="#8600A8"/>
<path fill-rule="evenodd" clip-rule="evenodd" d="M1077.24 56.0559C1076.26 56.0212 1075.29 56.0708 1074.34 56.2038C1070.54 56.7347 1067.18 58.5516 1064.97 61.2557C1062.77 63.9599 1061.92 67.3304 1062.6 70.6279C1062.64 70.8066 1062.69 70.9845 1062.74 71.1615L1062.81 86.1265C1049.6 74.1636 1032.03 66.8053 1012.8 66.6817C974.06 66.433 941.67 95.6325 938.05 133.098L937.708 132.998C937.648 134.158 937.606 135.32 937.602 136.493C937.421 176.951 970.856 209.933 1011.75 210.195C1031.55 210.323 1049.68 202.751 1063.16 190.326L1064.23 190.581L1064.3 198.59C1064.29 198.86 1064.3 199.13 1064.31 199.4L1064.33 201.527L1064.62 201.522C1065.29 204.312 1066.99 206.835 1069.45 208.683C1071.91 210.532 1074.97 211.596 1078.15 211.704C1079.09 211.737 1080.03 211.685 1080.96 211.549C1084.63 211.008 1087.89 209.181 1090.01 206.471C1092.13 203.76 1092.95 200.387 1092.28 197.091C1092.23 196.913 1092.18 196.736 1092.13 196.56L1091.97 178.323H1092.01L1091.99 174.163L1092.01 170.001H1091.97L1091.48 69.214C1091.48 68.9434 1091.48 68.6724 1091.47 68.4015L1091.46 66.2744L1091.16 66.2768C1090.48 63.4859 1088.74 60.9578 1086.21 59.1026C1083.68 57.2473 1080.52 56.1738 1077.24 56.056L1077.24 56.0559ZM1012.66 89.7551C1038.05 89.9184 1058.7 107.636 1063.03 130.942L1063.1 145.099C1059.07 169.088 1037.83 187.289 1011.9 187.122C984.26 186.944 962.23 165.969 960.762 139.622C961.01 111.873 983.966 89.5707 1012.66 89.7551H1012.66Z" fill="#8600A8"/>
<path fill-rule="evenodd" clip-rule="evenodd" d="M1468.6 64.4951C1447.24 64.8607 1426.33 74.317 1412.28 92.2253C1405.64 100.693 1401.23 110.207 1398.89 120.082C1398.89 120.086 1398.89 120.091 1398.89 120.1C1397.32 125.945 1396.46 132.077 1396.43 138.398C1396.2 178.855 1429.6 211.883 1470.5 212.204C1474.03 212.232 1477.51 212.006 1480.93 211.559C1480.94 211.558 1480.95 211.558 1480.96 211.557C1480.98 211.555 1481 211.552 1481.01 211.547C1481.71 211.455 1482.4 211.355 1483.09 211.244C1485.09 210.948 1487.08 210.6 1489.06 210.143C1489.9 210.028 1490.72 209.82 1491.51 209.524C1491.91 209.417 1492.32 209.314 1492.71 209.199L1492.66 209.037C1507.24 204.673 1520 196.027 1529.35 184.552C1529.94 183.946 1530.47 183.277 1530.91 182.558C1531.16 182.228 1531.42 181.901 1531.66 181.566L1531.51 181.467C1532.23 179.978 1532.61 178.355 1532.63 176.708V176.608C1532.63 173.577 1531.42 170.667 1529.25 168.518C1527.08 166.369 1524.14 165.156 1521.06 165.146C1519.48 165.143 1517.92 165.458 1516.47 166.073C1515.02 166.687 1513.71 167.587 1512.62 168.718H1512.62C1512.61 168.723 1512.61 168.732 1512.6 168.737C1512.12 169.237 1511.69 169.778 1511.31 170.355C1501.95 181.746 1487.59 189.036 1471.34 189.104C1460.4 188.917 1449.33 185.245 1439.89 177.806C1427.1 167.73 1420.28 153.149 1419.9 138.431L1520.24 139.03C1520.5 139.082 1520.77 139.13 1521.04 139.173C1525.99 139.844 1531.06 139.03 1535.13 136.908C1539.2 134.786 1541.94 131.531 1542.75 127.856C1542.96 126.931 1543.04 125.991 1542.99 125.05C1542.88 123.091 1542.23 121.163 1541.07 119.387C1541.46 116.926 1541.01 114.348 1539.81 112.031C1535.05 99.978 1527.11 88.9755 1516.17 80.4368C1502.07 69.4234 1485.2 64.2101 1468.6 64.4944V64.4951ZM1471.23 88.5118C1479.93 88.5447 1488.07 90.6435 1495.2 94.3184C1496.45 95.4374 1497.93 96.3034 1499.56 96.8603C1500.37 97.4259 1501.17 98.0107 1501.96 98.6284C1506.62 102.267 1510.48 106.515 1513.54 111.141L1428.27 110.634C1437.52 97.2302 1453.23 88.4477 1471.23 88.5118Z" fill="#8600A8"/>
<path fill-rule="evenodd" clip-rule="evenodd" d="M1482.38 68.7099C1481.81 68.6958 1481.2 68.7052 1480.55 68.7334C1468.8 68.8076 1459.84 67.4403 1440.63 77.1618C1429.44 82.7029 1425.56 89.7084 1425.13 95.4037L1265.74 122.748C1265.55 122.736 1265.36 122.729 1265.17 122.725C1261.73 122.746 1258.43 124.062 1256.01 126.384C1253.58 128.706 1252.23 131.845 1252.24 135.111C1252.26 138.317 1253.6 141.389 1255.96 143.678C1258.33 145.967 1261.55 147.293 1264.93 147.375L1264.97 147.622L1267.13 147.251C1267.41 147.212 1267.68 147.165 1267.95 147.11L1429.26 119.44C1434.53 124.688 1439.66 130.469 1450.39 130.381C1483.3 131.454 1509.62 129.379 1494.3 116.19L1471.68 97.5627C1478.62 87.9394 1500.05 69.0947 1482.38 68.712L1482.38 68.7099Z" fill="#FFBE00"/>
<path fill-rule="evenodd" clip-rule="evenodd" d="M1583.28 58.2582C1580 58.3761 1576.84 59.4501 1574.31 61.3058C1571.78 63.1616 1570.04 65.6902 1569.36 68.4815L1569.06 68.4791L1569.05 70.6062C1569.04 70.8763 1569.03 71.1465 1569.04 71.4163L1568.55 170.954L1568.1 201.859C1568.09 202.129 1568.08 202.399 1568.09 202.669L1568.06 204.797L1568.36 204.799C1568.98 207.603 1570.68 210.166 1573.17 212.071C1575.66 213.976 1578.8 215.112 1582.08 215.294C1583.05 215.347 1584.02 215.317 1584.98 215.202C1588.78 214.746 1592.19 212.995 1594.44 210.335C1596.7 207.674 1597.62 204.321 1597 201.011C1596.96 200.831 1596.92 200.653 1596.87 200.475L1597.16 180.528H1597.25L1597.29 171.6L1597.89 131.218C1602.97 108.871 1623.17 92.1187 1647.86 91.9601C1669.65 91.8202 1688.12 104.653 1695.86 122.989C1696.07 126.131 1697.4 129.072 1699.58 131.218C1701.76 133.363 1704.63 134.553 1707.6 134.546C1710.72 134.539 1713.7 133.226 1715.9 130.896C1718.09 128.566 1719.33 125.409 1719.33 122.118V122.011C1719.3 119.75 1718.7 117.538 1717.58 115.613L1717.63 115.501C1706.63 88.0484 1679.29 68.6836 1647.71 68.8866C1628.49 69.01 1610.91 76.3686 1597.7 88.3314L1597.77 73.3664C1597.83 73.1893 1597.87 73.0114 1597.92 72.8328C1598.6 69.5353 1597.74 66.1647 1595.54 63.4606C1593.34 60.7564 1589.97 58.9396 1586.18 58.4086C1585.22 58.2748 1584.25 58.2245 1583.28 58.2584L1583.28 58.2582Z" fill="#8600A8"/>
<path fill-rule="evenodd" clip-rule="evenodd" d="M1795.42 51.4261C1795.26 48.7633 1793.66 46.1951 1790.88 44.1381C1788.11 42.0812 1784.32 40.6562 1780.13 40.0945L1780.13 39.8543L1776.94 39.8374C1776.53 39.826 1776.13 39.8227 1775.72 39.8276L1741.2 39.6554V62.9735L1772.67 63.1312C1772.94 63.1744 1773.2 63.214 1773.47 63.25C1778.42 63.8119 1783.49 63.13 1787.56 61.3539C1791.63 59.5778 1794.37 56.8527 1795.19 53.7763C1795.39 53.0012 1795.47 52.2139 1795.42 51.426L1795.42 51.4261Z" fill="#8600A8"/>
<path fill-rule="evenodd" clip-rule="evenodd" d="M1715.87 51.4262C1716.03 48.7634 1717.63 46.1951 1720.41 44.1382C1723.19 42.0812 1726.98 40.6563 1731.16 40.0945L1731.16 39.8544L1734.35 39.8375C1734.76 39.8261 1735.16 39.8228 1735.57 39.8276L1770.09 39.6554V62.9736L1738.62 63.1312C1738.36 63.1744 1738.09 63.2141 1737.82 63.2501C1732.87 63.812 1727.8 63.13 1723.73 61.354C1719.66 59.5779 1716.92 56.8527 1716.11 53.7763C1715.9 53.0013 1715.82 52.2139 1715.87 51.4261L1715.87 51.4262Z" fill="#8600A8"/>
<path fill-rule="evenodd" clip-rule="evenodd" d="M1743.16 103.993L1742.77 182.051L1766.09 182.238L1766.48 103.993H1743.16Z" fill="#8600A8"/>
<path fill-rule="evenodd" clip-rule="evenodd" d="M1742.77 131.186L1743.4 19.7136C1743.4 19.3083 1743.4 18.9025 1743.41 18.4969L1743.44 15.3022L1743.71 15.307C1744.35 11.1175 1745.96 7.32724 1748.3 4.55119C1750.64 1.77515 1753.55 0.176184 1756.58 0.0137434C1757.47 -0.0343777 1758.37 0.0439466 1759.25 0.247502C1762.74 1.06096 1765.84 3.80417 1767.86 7.87524C1769.88 11.9463 1770.65 17.0127 1770.01 21.9626C1769.97 22.2307 1769.93 22.4976 1769.88 22.7631L1769.26 131.373L1742.77 131.186Z" fill="#8600A8"/>
<path fill-rule="evenodd" clip-rule="evenodd" d="M1742.77 84.4373L1743.4 195.91C1743.4 196.316 1743.4 196.721 1743.41 197.127L1743.44 200.322L1743.71 200.317C1744.35 204.506 1745.96 208.297 1748.3 211.073C1750.64 213.849 1753.55 215.448 1756.58 215.61C1757.47 215.658 1758.37 215.58 1759.25 215.376C1762.74 214.563 1765.84 211.82 1767.86 207.749C1769.88 203.677 1770.65 198.611 1770.01 193.661C1769.97 193.393 1769.93 193.126 1769.88 192.861L1769.26 84.25L1742.77 84.4373Z" fill="#8600A8"/>
<path fill-rule="evenodd" clip-rule="evenodd" d="M1931.61 56.0559C1930.64 56.0212 1929.67 56.0708 1928.71 56.2038C1924.92 56.7348 1921.55 58.5517 1919.35 61.2558C1917.15 63.9599 1916.29 67.3305 1916.97 70.6279C1917.01 70.8066 1917.06 70.9845 1917.11 71.1615L1917.19 86.1265C1903.98 74.1636 1886.4 66.8053 1867.18 66.6817C1828.44 66.433 1796.05 95.6325 1792.43 133.098L1792.08 132.998C1792.02 134.158 1791.98 135.32 1791.98 136.493C1791.8 176.951 1825.23 209.933 1866.13 210.195C1885.92 210.323 1904.05 202.751 1917.54 190.326L1918.61 190.581L1918.68 198.59C1918.67 198.86 1918.67 199.13 1918.69 199.4L1918.71 201.527L1919 201.522C1919.67 204.312 1921.37 206.835 1923.82 208.683C1926.28 210.532 1929.35 211.596 1932.53 211.704C1933.47 211.737 1934.41 211.685 1935.33 211.549C1939.01 211.008 1942.26 209.181 1944.39 206.471C1946.51 203.76 1947.32 200.387 1946.65 197.091C1946.61 196.913 1946.56 196.736 1946.51 196.56L1946.34 178.323H1946.39L1946.37 174.163L1946.39 170.001H1946.34L1945.85 69.214C1945.86 68.9434 1945.86 68.6724 1945.85 68.4015L1945.83 66.2744L1945.54 66.2768C1944.86 63.486 1943.11 60.9579 1940.59 59.1027C1938.06 57.2475 1934.9 56.1739 1931.62 56.0562L1931.61 56.0559ZM1867.03 89.7551C1892.42 89.9184 1913.08 107.636 1917.41 130.942L1917.48 145.099C1913.45 169.088 1892.21 187.289 1866.28 187.122C1838.64 186.944 1816.61 165.969 1815.14 139.622C1815.39 111.873 1838.34 89.5707 1867.03 89.7551H1867.03Z" fill="#8600A8"/>
</svg>
